<?xml version="1.0" encoding="utf-8"?>
<!-- Svg Vector Icons : http://www.onlinewebfonts.com/icon -->
<!DOCTYPE svg PUBLIC "-//W3C//DTD SVG 1.1//EN" "http://www.w3.org/Graphics/SVG/1.1/DTD/svg11.dtd">
<svg version="1.1" xmlns="http://www.w3.org/2000/svg" xmlns:xlink="http://www.w3.org/1999/xlink" x="0px" y="0px" fill="#0D6EFD" viewBox="0 0 1000 1000" enable-background="new 0 0 1000 1000" xml:space="preserve">
<metadata> Svg Vector Icons : http://www.onlinewebfonts.com/icon </metadata>
<g><path d="M265,10c48.7,0,88.2,39.5,88.2,88.2c0,48.7-39.5,88.2-88.2,88.2c-48.7,0-88.2-39.5-88.2-88.2C176.9,49.5,216.3,10,265,10L265,10z M641.7,460.2C555.2,622,537.1,773.3,528.7,954.7h332c-0.8-14.9-1.5-20-2.2-34.9c-8.2-170.1-20.8-325.1-110-458.5c-13.4-20,27.5-78.7,37.2-94.9c-0.3-0.3-0.5-0.6-0.7-0.7c-6.4-18.3-22.6-36.4-44.2-36.4c-21.6,0-41.7,21.2-45.9,42.7c-4.3-21.5-24.3-42.7-45.9-42.7c-20.7,0-36.5,16.7-43.4,34.2C614.3,378.3,653.1,439,641.7,460.2L641.7,460.2z M606.8,434.5l-19.2-32.9c-23.2,56.9-61.3,163-67.9,180.1c-4.2,11.1-12.4,18.6-22.3,20.6c-2.9,0.9-6,1.3-9.1,1.3l0,0c-17.9,0-33-14.9-33-33c-5.6-27.6-57.2-254.4-72.7-254.4c-16.1,0-13.4,153.6-16.4,174.8v448.6c0,24.4-20.1,44.3-44.3,44.3l0,0c-24.2,0-44.3-19.9-44.3-44.3V636.1h-24.8v303.5c0,24.2-20.1,44.3-44.3,44.3l0,0c-24.3,0-44.3-19.9-44.3-44.3l0-448.6c-3-21.1-0.3-174.8-16.4-174.8c-20.2,0-7.9,226.1-7.9,254.4c0,17.8-15.2,33-33,33h0c-17.9,0-33-14.8-33-33c0-72.9,0-245.9,0-291.4c0-45.5,53.2-71.3,71.3-71.3h45.1L265,460.9L340,207.9h49l1.2,0c17.5,0.6,66.3,26,66.3,71.3c0,28.7,26,108.8,45.1,182.2c21.9-61,41.6-118.3,67.5-185.8c4.3-11.1,14-18.6,24.9-20.6c11.1-3,53.6-3.2,97-2.7c43.7-0.5,93.6-0.3,104.6,2.7c11,2,20.7,9.5,24.9,20.6c38.9,101.5,63.8,179.7,103.2,282.5c6.5,16.9,1,34.6-15.2,42.6v0c-16.8,6.4-32.4-2.2-38.8-19c-6.3-16.5-43.4-118.9-66.7-176.5l-23.7,40.6c-0.1,0.8-0.2,1.3-0.1,1.5C889.9,590.4,894.8,803,896.5,975.7c0.1,0.5,0.1,1.1,0.1,1.6c0,7-5.7,12.7-12.7,12.7H505.6h-0.1l-0.5,0c-7-0.3-12.4-6.2-12.1-13.2h0.1c6-141.6,15.8-245.2,35-328.3c19.3-83.7,53.1-146.8,81.6-200.2C609.9,447.5,608.4,441.3,606.8,434.5L606.8,434.5z M695.2,57.9c48.7,0,88.2,39.5,88.2,88.2c0,48.7-39.5,88.2-88.2,88.2S607,194.9,607,146.2C607,97.4,646.5,57.9,695.2,57.9L695.2,57.9z M308.1,258l10-57.8l-53,24.5l-53-24.5l10,57.8l43-24.5L308.1,258L308.1,258z"/></g>
</svg>